<svg version="1.1" id="Layer_1" xmlns="http://www.w3.org/2000/svg" xmlns:xlink="http://www.w3.org/1999/xlink" x="0px" y="0px"
	 width="100%" viewBox="0 0 1594 1591" enable-background="new 0 0 1594 1591" xml:space="preserve">
<path fill="#4C6971" opacity="1.000000" stroke="none" 
	d="
M726.000000,1592.000000 
	C484.000031,1592.000000 242.500092,1592.000000 1.000097,1592.000000 
	C1.000065,1061.666748 1.000065,531.333618 1.000032,1.000311 
	C532.333069,1.000207 1063.666138,1.000207 1594.999512,1.000104 
	C1594.999634,531.333008 1594.999634,1061.666016 1594.999756,1591.999512 
	C1305.500000,1592.000000 1016.000000,1592.000000 726.000000,1592.000000 
M1045.006592,1317.493042 
	C1047.840698,1316.268066 1050.773926,1315.230103 1053.492798,1313.787842 
	C1072.793701,1303.550537 1092.414551,1293.849976 1111.238159,1282.794678 
	C1141.164551,1265.218506 1170.499756,1246.624756 1198.042114,1225.417603 
	C1225.376343,1204.370728 1252.732178,1183.337036 1279.585938,1161.686646 
	C1294.575928,1149.601318 1308.823608,1136.552124 1322.931030,1123.427002 
	C1337.285767,1110.071899 1351.100464,1096.133667 1365.004639,1082.302856 
	C1366.126587,1081.186768 1366.878662,1078.737427 1366.506592,1077.227051 
	C1361.970215,1058.816650 1357.190918,1040.465942 1352.396118,1021.794312 
	C1351.355469,1022.213562 1350.371704,1022.397522 1349.649658,1022.933899 
	C1342.834717,1027.996338 1336.121582,1033.197144 1329.270508,1038.209595 
	C1307.421143,1054.195557 1285.736694,1070.419678 1263.573364,1085.959595 
	C1248.648438,1096.424438 1233.135498,1106.070190 1217.681030,1115.755737 
	C1195.960327,1129.368530 1173.181030,1140.894897 1148.986694,1149.529907 
	C1131.425537,1155.797607 1113.421509,1160.490356 1094.852661,1161.751709 
	C1084.754639,1162.437622 1074.427856,1161.170288 1064.314331,1159.904297 
	C1045.669922,1157.570312 1029.544312,1149.236694 1015.561584,1136.962036 
	C992.443298,1116.667725 977.852234,1090.584229 967.135986,1062.306641 
	C959.897827,1043.207031 953.586487,1023.717468 947.750183,1004.137146 
	C942.836670,987.653015 939.126282,970.806091 935.028137,954.084229 
	C930.003113,933.580322 925.606140,912.909485 920.060974,892.549561 
	C913.978699,870.217529 905.623169,848.593933 893.730408,828.692627 
	C886.058655,815.854980 877.666992,803.215088 867.982788,791.864685 
	C851.730164,772.815613 832.060120,757.826660 808.611755,748.203064 
	C792.193359,741.464600 775.156616,737.359863 757.510071,736.101807 
	C749.189880,735.508545 740.791321,736.087097 732.430176,735.980591 
	C718.220093,735.799622 704.431702,738.600159 690.680847,741.691284 
	C664.092590,747.668274 640.087036,759.545715 617.781799,774.781555 
	C595.574646,789.950439 573.727539,805.663757 552.044006,821.576355 
	C536.894287,832.693909 522.101624,844.321228 507.486664,856.137878 
	C492.552551,868.212463 477.998169,880.758423 463.335266,893.166260 
	C445.528381,908.234497 427.708282,923.288696 410.035065,938.512817 
	C398.302979,948.619141 386.769501,958.958252 375.235504,969.291870 
	C361.347107,981.734985 347.523865,994.251343 333.725830,1006.794739 
	C321.745239,1017.685852 309.729187,1028.541870 297.927643,1039.625122 
	C283.180481,1053.474731 268.573181,1067.475830 254.093155,1081.603760 
	C252.443970,1083.212891 251.161102,1086.048584 251.132629,1088.333374 
	C250.898026,1107.161377 250.993179,1125.993408 251.014435,1144.824341 
	C251.015976,1146.186646 251.222229,1147.548706 251.416031,1149.925293 
	C259.437195,1143.395508 266.361359,1137.116211 273.920166,1131.727051 
	C295.811188,1116.119629 317.793091,1100.627686 340.047150,1085.544556 
	C364.657684,1068.864380 390.722290,1054.715454 418.235260,1043.399902 
	C442.160400,1033.559814 466.489960,1024.686035 493.015472,1028.201416 
	C501.738739,1029.357544 510.889282,1031.490723 518.550293,1035.593628 
	C534.909241,1044.354736 544.822998,1058.881958 551.217224,1076.324341 
	C561.721069,1104.977295 571.944641,1133.812134 584.239929,1161.709229 
	C599.727539,1196.849609 618.934204,1229.991699 643.293457,1260.035156 
	C658.257996,1278.491577 674.607605,1295.495728 693.055603,1310.275146 
	C712.307678,1325.698608 733.564270,1338.043335 756.585022,1347.281128 
	C781.624756,1357.328857 807.664124,1362.820435 834.434143,1364.880371 
	C844.070923,1365.621826 853.821411,1365.259033 863.503967,1364.929443 
	C873.708984,1364.582153 883.948853,1364.119263 894.075684,1362.896973 
	C907.189514,1361.313843 920.379944,1359.687622 933.232605,1356.747559 
	C971.689697,1347.950684 1008.615540,1334.561157 1045.006592,1317.493042 
M931.533203,546.000000 
	C934.129211,545.668518 936.717896,545.255798 939.322510,545.018677 
	C957.075195,543.402588 974.322937,539.339600 991.355103,534.265686 
	C1020.181396,525.678223 1047.602417,513.796692 1073.108276,497.865509 
	C1088.215332,488.429443 1101.533569,476.795837 1112.340698,462.368317 
	C1124.796753,445.739746 1132.661011,427.401520 1136.223755,406.887695 
	C1138.890015,391.535065 1138.972168,376.177429 1136.645264,361.061981 
	C1134.683838,348.321228 1130.915894,335.709229 1126.610229,323.512360 
	C1119.471680,303.290192 1108.410156,285.051117 1093.135376,269.976807 
	C1084.219604,261.178162 1074.174316,253.220993 1063.647949,246.415497 
	C1034.715942,227.710464 1003.020630,220.659485 968.671265,225.890839 
	C945.532288,229.414856 924.593689,238.125687 905.215820,250.963852 
	C888.807800,261.834503 875.512756,276.061646 863.458679,291.324066 
	C849.310730,309.237610 837.025635,328.528015 826.736389,348.904358 
	C817.418396,367.357300 808.427307,386.045227 800.594299,405.163116 
	C785.674622,441.577423 772.219666,478.506622 766.853577,517.858826 
	C765.156372,530.305298 765.650085,532.771240 777.655518,536.084106 
	C789.683533,539.403259 801.966125,542.231201 814.324036,543.823120 
	C832.877441,546.213135 851.572266,547.685730 870.250549,548.847900 
	C879.124390,549.400146 888.103699,548.429260 897.026550,547.977295 
	C908.223999,547.409973 919.412476,546.667236 931.533203,546.000000 
z"/>
<path fill="#FFFFFF" opacity="1.000000" stroke="none" 
	d="
M1044.690186,1317.711670 
	C1008.615540,1334.561157 971.689697,1347.950684 933.232605,1356.747559 
	C920.379944,1359.687622 907.189514,1361.313843 894.075684,1362.896973 
	C883.948853,1364.119263 873.708984,1364.582153 863.503967,1364.929443 
	C853.821411,1365.259033 844.070923,1365.621826 834.434143,1364.880371 
	C807.664124,1362.820435 781.624756,1357.328857 756.585022,1347.281128 
	C733.564270,1338.043335 712.307678,1325.698608 693.055603,1310.275146 
	C674.607605,1295.495728 658.257996,1278.491577 643.293457,1260.035156 
	C618.934204,1229.991699 599.727539,1196.849609 584.239929,1161.709229 
	C571.944641,1133.812134 561.721069,1104.977295 551.217224,1076.324341 
	C544.822998,1058.881958 534.909241,1044.354736 518.550293,1035.593628 
	C510.889282,1031.490723 501.738739,1029.357544 493.015472,1028.201416 
	C466.489960,1024.686035 442.160400,1033.559814 418.235260,1043.399902 
	C390.722290,1054.715454 364.657684,1068.864380 340.047150,1085.544556 
	C317.793091,1100.627686 295.811188,1116.119629 273.920166,1131.727051 
	C266.361359,1137.116211 259.437195,1143.395508 251.416031,1149.925293 
	C251.222229,1147.548706 251.015976,1146.186646 251.014435,1144.824341 
	C250.993179,1125.993408 250.898026,1107.161377 251.132629,1088.333374 
	C251.161102,1086.048584 252.443970,1083.212891 254.093155,1081.603760 
	C268.573181,1067.475830 283.180481,1053.474731 297.927643,1039.625122 
	C309.729187,1028.541870 321.745239,1017.685852 333.725830,1006.794739 
	C347.523865,994.251343 361.347107,981.734985 375.235504,969.291870 
	C386.769501,958.958252 398.302979,948.619141 410.035065,938.512817 
	C427.708282,923.288696 445.528381,908.234497 463.335266,893.166260 
	C477.998169,880.758423 492.552551,868.212463 507.486664,856.137878 
	C522.101624,844.321228 536.894287,832.693909 552.044006,821.576355 
	C573.727539,805.663757 595.574646,789.950439 617.781799,774.781555 
	C640.087036,759.545715 664.092590,747.668274 690.680847,741.691284 
	C704.431702,738.600159 718.220093,735.799622 732.430176,735.980591 
	C740.791321,736.087097 749.189880,735.508545 757.510071,736.101807 
	C775.156616,737.359863 792.193359,741.464600 808.611755,748.203064 
	C832.060120,757.826660 851.730164,772.815613 867.982788,791.864685 
	C877.666992,803.215088 886.058655,815.854980 893.730408,828.692627 
	C905.623169,848.593933 913.978699,870.217529 920.060974,892.549561 
	C925.606140,912.909485 930.003113,933.580322 935.028137,954.084229 
	C939.126282,970.806091 942.836670,987.653015 947.750183,1004.137146 
	C953.586487,1023.717468 959.897827,1043.207031 967.135986,1062.306641 
	C977.852234,1090.584229 992.443298,1116.667725 1015.561584,1136.962036 
	C1029.544312,1149.236694 1045.669922,1157.570312 1064.314331,1159.904297 
	C1074.427856,1161.170288 1084.754639,1162.437622 1094.852661,1161.751709 
	C1113.421509,1160.490356 1131.425537,1155.797607 1148.986694,1149.529907 
	C1173.181030,1140.894897 1195.960327,1129.368530 1217.681030,1115.755737 
	C1233.135498,1106.070190 1248.648438,1096.424438 1263.573364,1085.959595 
	C1285.736694,1070.419678 1307.421143,1054.195557 1329.270508,1038.209595 
	C1336.121582,1033.197144 1342.834717,1027.996338 1349.649658,1022.933899 
	C1350.371704,1022.397522 1351.355469,1022.213562 1352.396118,1021.794312 
	C1357.190918,1040.465942 1361.970215,1058.816650 1366.506592,1077.227051 
	C1366.878662,1078.737427 1366.126587,1081.186768 1365.004639,1082.302856 
	C1351.100464,1096.133667 1337.285767,1110.071899 1322.931030,1123.427002 
	C1308.823608,1136.552124 1294.575928,1149.601318 1279.585938,1161.686646 
	C1252.732178,1183.337036 1225.376343,1204.370728 1198.042114,1225.417603 
	C1170.499756,1246.624756 1141.164551,1265.218506 1111.238159,1282.794678 
	C1092.414551,1293.849976 1072.793701,1303.550537 1053.492798,1313.787842 
	C1050.773926,1315.230103 1047.840698,1316.268066 1044.690186,1317.711670 
z"/>
<path fill="#FFFFFF" opacity="1.000000" stroke="none" 
	d="
M931.069031,546.000122 
	C919.412476,546.667236 908.223999,547.409973 897.026550,547.977295 
	C888.103699,548.429260 879.124390,549.400146 870.250549,548.847900 
	C851.572266,547.685730 832.877441,546.213135 814.324036,543.823120 
	C801.966125,542.231201 789.683533,539.403259 777.655518,536.084106 
	C765.650085,532.771240 765.156372,530.305298 766.853577,517.858826 
	C772.219666,478.506622 785.674622,441.577423 800.594299,405.163116 
	C808.427307,386.045227 817.418396,367.357300 826.736389,348.904358 
	C837.025635,328.528015 849.310730,309.237610 863.458679,291.324066 
	C875.512756,276.061646 888.807800,261.834503 905.215820,250.963852 
	C924.593689,238.125687 945.532288,229.414856 968.671265,225.890839 
	C1003.020630,220.659485 1034.715942,227.710464 1063.647949,246.415497 
	C1074.174316,253.220993 1084.219604,261.178162 1093.135376,269.976807 
	C1108.410156,285.051117 1119.471680,303.290192 1126.610229,323.512360 
	C1130.915894,335.709229 1134.683838,348.321228 1136.645264,361.061981 
	C1138.972168,376.177429 1138.890015,391.535065 1136.223755,406.887695 
	C1132.661011,427.401520 1124.796753,445.739746 1112.340698,462.368317 
	C1101.533569,476.795837 1088.215332,488.429443 1073.108276,497.865509 
	C1047.602417,513.796692 1020.181396,525.678223 991.355103,534.265686 
	C974.322937,539.339600 957.075195,543.402588 939.322510,545.018677 
	C936.717896,545.255798 934.129211,545.668518 931.069031,546.000122 
z"/>
</svg>